<svg width="24" height="25" viewBox="0 0 24 25" fill="white" xmlns="http://www.w3.org/2000/svg">
<path d="M21 11.9261C21 16.0761 18.79 21.1361 12.13 21.1361C7.12461 21.1693 3.03852 17.1414 3 12.1361C3.03852 7.13072 7.12461 3.10281 12.13 3.13607C14.2007 3.14375 16.2085 3.84824 17.83 5.13607C17.942 5.2276 18.0109 5.36168 18.02 5.50607C18.0206 5.65216 17.963 5.79248 17.86 5.89607C17.209 6.49127 16.5882 7.11872 16 7.77607C15.8289 7.96437 15.5422 7.99043 15.34 7.83607C14.4161 7.15235 13.2888 6.80005 12.14 6.83607C9.18528 6.83607 6.79 9.23135 6.79 12.1861C6.79 15.1408 9.18528 17.5361 12.14 17.5361C15.14 17.5361 16.41 16.2561 17.07 13.9861H12.5C12.2239 13.9861 12 13.7622 12 13.4861V10.8361C12 10.5599 12.2239 10.3361 12.5 10.3361H20.5C20.7302 10.3346 20.9244 10.5072 20.95 10.7361C20.9871 11.1316 21.0038 11.5288 21 11.9261Z" fill="white"/>
</svg>
