<svg width="136" height="76" viewBox="0 0 136 76" fill="none" xmlns="http://www.w3.org/2000/svg">
<path d="M22.0083 57.411H10.07L8.15628 63.0612H0L11.5737 31.074H20.5957L32.1694 63.0612H23.922L22.0083 57.411ZM20.0034 51.3964L16.0392 39.6859L12.1205 51.3964H20.0034Z" fill="#ECB500"/>
<path d="M72.1901 37.6355L65.3097 63.0612H56.6977L52.6879 46.5664L48.5415 63.0612H39.9751L33.0491 37.6355H40.8408L44.4405 55.8162L48.7237 37.6355H56.9711L61.2999 55.7251L64.854 37.6355H72.1901Z" fill="#ECB500"/>
<path d="M73.6123 50.3028C73.6123 47.6903 74.0983 45.3969 75.0704 43.4223C76.0728 41.4478 77.4246 39.929 79.1257 38.8658C80.8268 37.8026 82.7254 37.271 84.8214 37.271C86.6137 37.271 88.1781 37.6355 89.5147 38.3645C90.8817 39.0936 91.9297 40.0505 92.6587 41.2352V37.6355H100.451V63.0612H92.6587V59.4615C91.8993 60.6462 90.8361 61.6031 89.4691 62.3321C88.1325 63.0612 86.5681 63.4257 84.7759 63.4257C82.7102 63.4257 80.8268 62.8941 79.1257 61.8309C77.4246 60.7373 76.0728 59.2033 75.0704 57.2288C74.0983 55.2239 73.6123 52.9152 73.6123 50.3028ZM92.6587 50.3483C92.6587 48.4042 92.112 46.8701 91.0184 45.7462C89.9552 44.6222 88.649 44.0603 87.0997 44.0603C85.5505 44.0603 84.2291 44.6222 83.1355 45.7462C82.0723 46.8398 81.5407 48.3586 81.5407 50.3028C81.5407 52.2469 82.0723 53.7962 83.1355 54.9505C84.2291 56.0744 85.5505 56.6364 87.0997 56.6364C88.649 56.6364 89.9552 56.0744 91.0184 54.9505C92.112 53.8265 92.6587 52.2925 92.6587 50.3483Z" fill="#ECB500"/>
<path d="M132.06 37.6355L116.112 75.1361H107.728L113.56 62.1954L103.217 37.6355H111.92L117.798 53.5379L123.63 37.6355H132.06Z" fill="#ECB500"/>
<path d="M49.0288 2.59539V8.83791H40.5536V34.5826H32.7618V8.83791H24.2866V2.59539H49.0288Z" fill="#ECB500"/>
<path d="M51.39 21.8242C51.39 19.2117 51.8761 16.9182 52.8481 14.9437C53.8506 12.9692 55.2024 11.4503 56.9035 10.3871C58.6046 9.32394 60.5032 8.79234 62.5992 8.79234C64.3915 8.79234 65.9559 9.15686 67.2925 9.88592C68.6595 10.615 69.7075 11.5719 70.4365 12.7566V9.15687H78.2283V34.5826H70.4365V30.9829C69.6771 32.1676 68.6139 33.1245 67.2469 33.8535C65.9103 34.5826 64.3459 34.9471 62.5536 34.9471C60.488 34.9471 58.6046 34.4155 56.9035 33.3523C55.2024 32.2587 53.8506 30.7247 52.8481 28.7502C51.8761 26.7453 51.39 24.4366 51.39 21.8242ZM70.4365 21.8697C70.4365 19.9256 69.8897 18.3915 68.7962 17.2676C67.733 16.1436 66.4267 15.5816 64.8775 15.5816C63.3283 15.5816 62.0069 16.1436 60.9133 17.2676C59.8501 18.3612 59.3185 19.88 59.3185 21.8242C59.3185 23.7683 59.8501 25.3175 60.9133 26.4719C62.0069 27.5958 63.3283 28.1578 64.8775 28.1578C66.4267 28.1578 67.733 27.5958 68.7962 26.4719C69.8897 25.3479 70.4365 23.8139 70.4365 21.8697Z" fill="#ECB500"/>
<path d="M99.4032 34.5826L91.657 23.9202V34.5826H83.8653V0.863892H91.657V19.5003L99.3576 9.15687H108.972L98.4007 21.9153L109.063 34.5826H99.4032Z" fill="#ECB500"/>
<path d="M136 21.4596C136 22.1887 135.954 22.9481 135.863 23.7379H118.229C118.351 25.3175 118.852 26.5326 119.733 27.3832C120.644 28.2034 121.753 28.6135 123.059 28.6135C125.003 28.6135 126.355 27.7933 127.115 26.1529H135.408C134.982 27.8237 134.208 29.3273 133.084 30.6639C131.99 32.0005 130.608 33.0485 128.937 33.808C127.267 34.5674 125.398 34.9471 123.333 34.9471C120.842 34.9471 118.624 34.4155 116.68 33.3523C114.736 32.2891 113.217 30.7702 112.124 28.7957C111.03 26.8212 110.483 24.5125 110.483 21.8697C110.483 19.2269 111.015 16.9182 112.078 14.9437C113.172 12.9692 114.69 11.4503 116.635 10.3871C118.579 9.32394 120.811 8.79234 123.333 8.79234C125.793 8.79234 127.98 9.30875 129.894 10.3416C131.808 11.3744 133.296 12.8477 134.36 14.7615C135.453 16.6752 136 18.9079 136 21.4596ZM128.026 19.4092C128.026 18.0726 127.57 17.0094 126.659 16.2196C125.748 15.4298 124.609 15.0349 123.242 15.0349C121.935 15.0349 120.827 15.4146 119.915 16.174C119.034 16.9334 118.488 18.0118 118.275 19.4092H128.026Z" fill="#ECB500"/>
</svg>
